<?xml version="1.0" standalone="no"?>
<!DOCTYPE svg PUBLIC "-//W3C//DTD SVG 20010904//EN"
 "http://www.w3.org/TR/2001/REC-SVG-20010904/DTD/svg10.dtd">
<svg version="1.0" xmlns="http://www.w3.org/2000/svg"
 width="260.000000pt" height="260.000000pt" viewBox="0 0 260.000000 260.000000"
 preserveAspectRatio="xMidYMid meet">
<metadata>
Created by potrace 1.14, written by Peter Selinger 2001-2017
</metadata>
<g transform="translate(0.000000,260.000000) scale(0.100000,-0.100000)"
fill="#000000" stroke="none">
<path d="M0 1300 l0 -1300 1300 0 1300 0 0 1300 0 1300 -1300 0 -1300 0 0
-1300z m1507 948 c93 -33 199 -104 263 -176 96 -107 159 -274 160 -419 1 -255
-205 -659 -543 -1068 l-88 -106 -62 73 c-208 245 -411 564 -497 782 -111 280
-89 512 65 709 81 103 215 190 343 222 93 23 270 15 359 -17z"/>
<path d="M1242 1870 c-52 -12 -107 -57 -137 -111 -24 -44 -27 -59 -23 -119 5
-90 39 -143 118 -183 47 -24 63 -28 113 -24 122 11 207 100 207 218 0 98 -64
188 -154 214 -54 16 -74 17 -124 5z"/>
</g>
</svg>
